<?xml version="1.0" encoding="UTF-8" standalone="no"?>
<svg
   height="14"
   version="1.1"
   viewBox="0 0 18 14"
   width="18"
   id="svg12"
   sodipodi:docname="add note.svg"
   inkscape:export-filename="C:\Users\admin\Desktop\Android\CustoNote\add note.png"
   inkscape:export-xdpi="1690.9061"
   inkscape:export-ydpi="1690.9061"
   inkscape:version="1.1 (c68e22c387, 2021-05-23)"
   xmlns:inkscape="http://www.inkscape.org/namespaces/inkscape"
   xmlns:sodipodi="http://sodipodi.sourceforge.net/DTD/sodipodi-0.dtd"
   xmlns="http://www.w3.org/2000/svg"
   xmlns:svg="http://www.w3.org/2000/svg">
  <sodipodi:namedview
     id="namedview14"
     pagecolor="#ffffff"
     bordercolor="#000000"
     borderopacity="1"
     inkscape:pageshadow="2"
     inkscape:pageopacity="0.0"
     inkscape:pagecheckerboard="0"
     showgrid="false"
     inkscape:zoom="1.8654829"
     inkscape:cx="-120.34418"
     inkscape:cy="-17.957817"
     inkscape:window-width="1600"
     inkscape:window-height="837"
     inkscape:window-x="-8"
     inkscape:window-y="-8"
     inkscape:window-maximized="1"
     inkscape:current-layer="svg12" />
  <title
     id="title2" />
  <desc
     id="desc4" />
  <defs
     id="defs6" />
  <g
     id="g847"
     transform="matrix(0.35123934,0,0,0.35123934,3.5532985,2.7325733)">
    <g
       id="g830">
      <text
         xml:space="preserve"
         style="font-size:28.7378px;line-height:1.25;font-family:Dubai;-inkscape-font-specification:Dubai;text-align:center;text-anchor:middle;fill:#66ff64;fill-opacity:1;stroke-width:0.0538834"
         x="19.146927"
         y="6.2887235"
         id="text2708"><tspan
           sodipodi:role="line"
           id="tspan2706"
           style="font-size:28.7378px;fill:#66ff64;fill-opacity:1;stroke-width:0.0538834"
           x="19.146927"
           y="6.2887235">+</tspan></text>
      <g
         id="paper"
         transform="matrix(0.01928387,0,0,-0.01928387,-7.4334795,29.929776)"
         style="fill:#b3b3b3">
        <path
           d="M 1253.479,0 H 161.702 C 72.889,0 0,71.166 0,159.98 V 1542.464 C 0,1631.279 72.889,1704 161.702,1704 h 641.69 c 17.524,0 34.329,-7.191 46.719,-19.584 l 544.811,-545.201 c 12.389,-12.389 19.078,-29.312 19.078,-46.834 v -932.4 C 1414,71.166 1342.292,0 1253.479,0 Z M 132,1542.465 V 159.98 C 132,144.027 145.752,132 161.702,132 h 1091.776 c 15.95,0 28.521,12.027 28.521,27.98 V 994 H 865.354 C 776.542,994 704,1065.529 704,1154.344 V 1572 H 161.702 C 145.752,1572 132,1558.416 132,1542.465 Z M 836,1510.99 V 1154.344 C 836,1138.393 849.403,1126 865.354,1126 h 356.649 z"
           id="path2"
           style="fill:#b3b3b3" />
      </g>
    </g>
  </g>
</svg>
