<?xml version="1.0" standalone="no"?>
<!DOCTYPE svg PUBLIC "-//W3C//DTD SVG 20010904//EN"
 "http://www.w3.org/TR/2001/REC-SVG-20010904/DTD/svg10.dtd">
<svg version="1.0" xmlns="http://www.w3.org/2000/svg"
 width="1280.000000pt" height="1280.000000pt" viewBox="0 0 1280.000000 1280.000000"
 preserveAspectRatio="xMidYMid meet">
<metadata>
Created by potrace 1.15, written by Peter Selinger 2001-2017
</metadata>
<g transform="translate(0.000000,1280.000000) scale(0.100000,-0.100000)"
fill="#000000" stroke="none">
<path d="M8822 10801 c-38 -10 -68 -35 -87 -72 -35 -68 -50 -801 -20 -975 48
-272 214 -399 499 -380 172 12 573 122 622 171 23 23 24 31 24 142 0 96 -3
125 -19 153 -31 59 -46 59 -289 6 -340 -74 -414 -78 -473 -28 -28 23 -69 89
-69 110 0 25 265 72 408 72 97 0 149 17 156 52 11 53 16 235 7 266 -10 32 -9
32 25 32 42 0 89 23 104 49 5 11 10 76 10 144 l0 125 -31 26 c-36 31 -31 29
-229 60 -282 44 -566 65 -638 47z"/>
<path d="M7423 10776 c-63 -29 -77 -81 -93 -346 -24 -399 4 -919 54 -995 27
-40 53 -48 137 -42 189 15 480 93 609 164 145 79 257 195 300 310 20 53 21 73
18 243 -3 180 -4 187 -31 243 -111 225 -482 411 -863 432 -75 4 -107 2 -131
-9z m408 -422 c119 -35 247 -128 309 -224 38 -60 36 -73 -31 -145 -49 -53
-100 -84 -197 -119 -61 -22 -248 -66 -280 -66 -28 0 -65 170 -65 295 1 121 28
222 70 254 32 26 115 28 194 5z"/>
<path d="M3814 10766 c-102 -45 -211 -225 -461 -761 l-158 -340 3 -135 c2
-129 4 -136 27 -160 19 -19 36 -25 68 -25 62 0 116 39 176 129 31 45 59 76 73
79 64 16 492 67 561 67 9 0 17 -6 17 -14 0 -7 10 -33 23 -57 13 -24 34 -70 46
-102 13 -32 35 -66 49 -77 54 -43 150 -13 172 56 18 53 8 276 -14 328 -11 26
-16 67 -16 130 0 106 -8 124 -72 154 l-43 20 -38 128 c-74 248 -165 452 -235
528 -30 31 -96 66 -127 65 -11 0 -34 -6 -51 -13z m80 -543 c38 -76 80 -203 70
-212 -10 -10 -264 -44 -271 -38 -12 13 149 297 169 297 4 0 18 -21 32 -47z"/>
<path d="M4636 10728 c-26 -26 -35 -47 -45 -98 -42 -234 -40 -906 4 -1136 25
-129 60 -148 223 -119 350 62 745 281 827 457 22 48 25 65 25 186 0 157 -10
187 -76 232 -23 17 -47 30 -53 30 -7 0 -11 40 -11 116 0 92 -4 122 -17 146
-32 54 -139 106 -303 148 -119 30 -384 70 -468 70 -70 0 -76 -2 -106 -32z
m607 -769 c31 -7 57 -15 57 -19 0 -29 -429 -186 -444 -162 -10 18 -36 119 -36
143 0 26 2 27 83 37 118 13 274 14 340 1z"/>
<path d="M6656 10750 c-338 -53 -671 -277 -796 -535 -51 -104 -63 -181 -58
-363 3 -133 6 -152 30 -204 73 -157 222 -235 495 -258 173 -15 341 0 588 52
108 22 158 43 190 78 17 19 20 39 23 147 4 145 -2 161 -74 189 -46 18 -48 18
-153 -9 -355 -91 -651 -84 -765 16 l-37 32 28 55 c51 99 217 246 358 316 83
41 159 52 234 34 46 -11 53 -16 78 -61 29 -55 49 -64 117 -57 59 7 96 27 123
67 21 31 23 45 23 170 0 159 -12 195 -80 253 -87 75 -188 99 -324 78z"/>
<path d="M6891 9057 c-27 -7 -51 -22 -62 -37 -30 -43 -51 -231 -58 -519 l-6
-265 -219 -38 c-121 -21 -222 -36 -225 -32 -11 11 -2 329 13 462 9 74 16 180
16 237 0 93 -2 107 -22 130 -29 33 -81 45 -148 34 -81 -13 -95 -31 -114 -157
-46 -304 -46 -760 -1 -1170 19 -173 42 -207 145 -219 60 -7 94 1 120 29 17 19
20 35 20 120 0 71 3 98 13 98 6 1 105 20 219 44 l207 42 5 -45 c3 -25 8 -73
12 -106 8 -77 33 -119 84 -139 72 -29 167 -14 184 29 3 9 6 84 6 167 l0 150
43 38 42 38 3 134 c3 130 3 136 -20 161 -13 14 -39 30 -58 35 -28 7 -36 14
-40 37 -6 37 6 276 20 373 5 40 10 129 10 196 0 116 -1 124 -23 144 -23 22
-77 43 -107 41 -8 0 -35 -6 -59 -12z"/>
<path d="M3475 8958 c-57 -8 -97 -42 -113 -96 -41 -138 -61 -525 -43 -837 16
-288 41 -425 88 -477 36 -40 124 -31 183 19 38 32 60 105 60 199 0 82 -10 75
125 94 186 26 279 42 313 54 21 7 54 16 74 20 66 12 78 39 78 183 0 130 -7
159 -49 197 -24 22 -65 20 -250 -14 -62 -11 -155 -20 -207 -20 l-93 0 -11 57
c-17 82 -17 152 1 164 51 33 127 35 404 14 262 -20 259 -20 297 14 l33 29 -3
129 c-3 112 -6 131 -24 150 -30 33 -55 39 -293 77 -264 43 -469 59 -570 44z"/>
<path d="M8365 8963 c-53 -9 -66 -15 -94 -44 l-31 -31 0 -121 c0 -101 3 -126
18 -143 9 -12 67 -50 127 -84 258 -147 408 -276 477 -408 l23 -44 -43 -38
c-125 -112 -410 -115 -737 -8 -102 33 -142 31 -181 -7 -22 -23 -24 -31 -24
-135 0 -131 8 -152 80 -209 54 -43 164 -86 310 -122 125 -30 330 -33 435 -5
111 29 228 88 290 147 107 101 135 181 135 390 0 213 -44 347 -163 488 -138
165 -516 392 -622 374z"/>
<path d="M9415 8956 c-45 -19 -51 -32 -71 -151 -16 -95 -19 -163 -19 -490 0
-421 18 -654 54 -705 30 -42 75 -62 141 -63 50 0 65 4 85 23 24 22 25 29 25
136 0 112 0 113 31 143 49 50 65 44 189 -73 106 -100 349 -294 378 -301 35 -9
107 30 132 71 20 31 21 46 18 164 l-3 130 -155 157 c-86 87 -166 170 -179 185
l-24 27 158 211 157 210 5 104 c7 128 -3 157 -66 197 -44 28 -98 37 -135 23
-8 -3 -84 -101 -168 -217 -208 -286 -315 -399 -362 -381 -27 11 -28 47 -5 175
12 69 24 181 27 251 l4 128 -30 30 c-28 27 -36 30 -94 30 -35 -1 -77 -7 -93
-14z"/>
<path d="M7484 8949 c-17 -5 -38 -17 -47 -26 -34 -39 -67 -327 -67 -596 0
-294 35 -687 65 -733 25 -38 73 -58 143 -58 58 -1 66 2 88 27 22 26 24 37 24
132 0 58 -7 178 -16 267 -22 212 -22 479 0 628 20 146 21 281 1 319 -23 46
-109 64 -191 40z"/>
<path d="M5276 8934 c-410 -74 -774 -376 -826 -687 -8 -42 -11 -127 -8 -211 4
-128 7 -147 32 -203 50 -110 160 -190 325 -236 67 -18 101 -21 286 -20 143 0
235 5 288 15 l77 15 0 -42 c0 -56 24 -77 94 -83 88 -7 103 6 185 167 39 77 85
182 103 233 30 87 32 104 36 256 5 190 -4 238 -55 288 -18 18 -51 39 -73 45
l-40 12 0 137 0 138 -32 48 c-57 83 -175 145 -272 143 -23 0 -77 -7 -120 -15z
m89 -445 c74 -19 74 -34 3 -54 -87 -24 -293 -102 -349 -132 -26 -14 -52 -36
-58 -49 -6 -14 -11 -79 -11 -151 l0 -125 -35 6 c-53 10 -101 33 -140 67 l-35
31 31 59 c61 113 276 290 409 336 73 25 120 28 185 12z m206 -443 c-11 -13
-167 -49 -261 -60 -61 -8 -37 2 105 40 136 37 174 42 156 20z"/>
<path d="M6203 7183 c-60 -21 -88 -59 -107 -145 -67 -305 -74 -791 -15 -1150
34 -213 40 -221 149 -239 72 -11 138 1 163 32 24 30 23 177 -2 345 -22 143
-36 282 -29 274 3 -3 24 -48 46 -100 103 -243 213 -380 365 -455 226 -112 406
7 468 308 27 133 27 475 0 616 -19 98 -79 290 -119 383 -26 58 -103 108 -168
108 -59 0 -68 -15 -72 -130 -4 -85 0 -116 26 -222 77 -309 109 -507 93 -578
-38 -170 -175 -56 -354 297 -105 207 -237 523 -237 569 0 89 -93 128 -207 87z"/>
<path d="M3414 7111 c-31 -14 -43 -27 -48 -48 -39 -196 -41 -215 -41 -588 0
-292 4 -404 18 -530 21 -182 28 -199 101 -229 46 -20 49 -20 174 -2 167 24
473 79 600 109 170 40 185 61 180 253 -3 105 -6 127 -24 150 -31 42 -59 44
-195 18 -266 -52 -364 -66 -442 -62 -75 3 -80 5 -109 37 -34 39 -34 4 -8 311
6 69 12 218 13 332 l2 207 -27 28 c-37 36 -132 44 -194 14z"/>
<path d="M5503 7111 c-49 -23 -53 -29 -87 -150 -15 -52 -58 -178 -95 -280 -37
-102 -74 -208 -81 -236 -7 -27 -16 -53 -20 -58 -14 -16 -206 493 -225 598 -20
109 -102 163 -185 120 -41 -21 -61 -55 -118 -200 -84 -216 -101 -286 -162
-652 -32 -191 -40 -267 -40 -366 l0 -125 34 -30 c65 -56 158 -50 221 15 41 42
40 41 56 188 11 115 29 222 49 295 l11 43 35 -104 c34 -102 109 -254 164 -334
15 -22 35 -57 44 -78 11 -27 26 -42 50 -52 78 -33 144 -8 173 64 8 20 58 138
111 264 l97 227 12 -35 c17 -50 24 -123 31 -339 7 -188 7 -189 33 -208 14 -11
49 -21 80 -24 70 -7 135 24 161 76 23 45 24 184 3 334 -8 59 -22 209 -30 334
-15 234 -35 359 -81 512 -62 204 -123 254 -241 201z"/>
<path d="M8975 7115 c-22 -8 -41 -15 -42 -15 -7 -1 -26 -81 -40 -173 -26 -164
-26 -724 1 -957 10 -91 25 -180 32 -198 17 -41 79 -71 146 -72 97 0 118 28
118 159 l0 88 130 47 c145 53 352 153 450 217 87 57 181 153 211 214 22 46 24
61 24 205 0 141 -2 159 -22 196 -75 141 -334 242 -699 274 -71 6 -145 16 -165
21 -50 13 -97 11 -144 -6z m376 -451 c107 -15 263 -56 273 -73 7 -11 -85 -65
-174 -101 -77 -32 -262 -90 -286 -90 -16 0 -18 74 -8 203 l7 77 38 0 c21 0 89
-7 150 -16z"/>
<path d="M7942 7100 c-199 -53 -381 -196 -460 -360 -63 -128 -72 -178 -72
-375 1 -193 7 -230 57 -334 66 -139 196 -241 363 -287 98 -27 263 -25 360 5
248 77 418 242 489 475 18 59 21 93 21 260 0 176 -2 196 -24 259 -60 168 -182
289 -351 344 -111 36 -278 42 -383 13z m287 -429 c74 -28 117 -66 151 -134 16
-33 30 -65 30 -71 0 -6 -13 -38 -29 -71 -33 -71 -123 -173 -184 -208 -125 -73
-300 -76 -397 -7 -42 30 -110 136 -110 172 0 73 95 207 190 268 105 68 250 89
349 51z"/>
<path d="M8650 5320 c-364 -55 -630 -79 -919 -83 l-204 -3 -29 -33 -30 -33 4
-138 c3 -122 6 -142 24 -167 39 -52 51 -54 290 -51 l221 3 6 -300 c8 -380 29
-560 72 -605 56 -59 194 -62 231 -5 20 30 16 184 -11 481 -16 172 -17 231 -9
327 6 64 13 119 17 123 3 4 82 17 175 30 243 32 400 62 428 81 46 30 54 61 54
208 l0 137 -29 29 c-36 36 -42 36 -291 -1z"/>
<path d="M7071 5333 c-33 -6 -262 -91 -398 -146 -250 -103 -487 -240 -571
-331 -49 -53 -56 -83 -50 -211 5 -111 18 -132 103 -164 45 -17 63 -18 161 -10
171 14 487 12 579 -4 82 -15 158 -44 158 -62 0 -23 -136 -80 -263 -110 -104
-24 -267 -19 -375 11 -49 14 -110 28 -135 31 -41 4 -48 1 -75 -27 -30 -31 -30
-33 -33 -155 -2 -72 1 -131 7 -143 13 -25 260 -147 337 -166 154 -39 344 -26
483 32 154 65 304 199 368 329 l38 77 3 169 c4 204 -3 238 -66 308 -49 55
-106 88 -197 115 l-60 17 55 14 c57 15 101 48 126 95 17 33 20 249 3 280 -23
42 -116 66 -198 51z"/>
<path d="M4875 5291 c-47 -12 -75 -30 -85 -55 -4 -12 -17 -72 -27 -132 -37
-224 -18 -1052 28 -1166 31 -77 213 -105 249 -38 6 10 10 61 10 113 l0 94 73
27 c39 14 75 26 79 26 3 0 46 -40 95 -88 100 -100 203 -160 356 -207 141 -44
215 -25 263 67 17 32 20 268 4 299 -15 27 -63 49 -107 49 -51 0 -150 26 -186
49 l-29 18 64 45 c83 60 164 146 191 205 20 43 22 65 22 198 0 173 -8 199 -88
272 -117 108 -315 168 -684 208 -76 8 -151 17 -168 19 -16 3 -43 1 -60 -3z
m390 -467 c85 -14 194 -44 223 -63 31 -19 -167 -114 -357 -170 -57 -17 -105
-31 -107 -31 -6 0 -5 117 3 208 l6 83 71 -6 c39 -4 112 -13 161 -21z"/>
<path d="M3875 5284 c-243 -39 -451 -186 -553 -390 -59 -118 -67 -160 -67
-369 0 -180 2 -194 27 -263 34 -95 77 -159 149 -226 182 -169 482 -198 734
-71 l88 44 18 -22 c11 -12 52 -71 91 -130 47 -70 81 -110 95 -114 46 -11 113
22 140 70 8 14 12 68 13 145 0 136 -4 148 -82 266 l-39 59 19 46 c33 77 42
145 42 314 0 113 -5 181 -15 222 -50 198 -199 346 -400 400 -62 17 -208 27
-260 19z m190 -445 c113 -35 197 -144 181 -234 -4 -19 -10 -35 -15 -35 -4 0
-25 15 -47 34 -75 64 -233 165 -269 172 -49 9 -132 -2 -161 -21 -23 -15 -24
-19 -24 -150 l0 -135 46 -33 c26 -17 76 -53 112 -79 l64 -46 -38 -11 c-55 -15
-132 -14 -193 5 -67 20 -132 78 -167 151 -25 51 -26 56 -13 96 43 132 177 253
322 292 73 19 125 18 202 -6z"/>
<path d="M9289 5275 c-58 -32 -184 -260 -219 -399 -26 -104 -29 -414 -4 -534
84 -413 542 -606 878 -369 23 16 30 17 37 6 5 -8 9 -22 9 -31 0 -28 49 -77 88
-88 77 -21 161 -4 176 35 11 31 6 254 -10 417 -21 211 -21 461 0 608 9 63 16
157 16 208 0 90 -1 95 -29 123 -17 17 -41 30 -58 30 -107 6 -172 -18 -185 -66
-24 -91 -40 -274 -45 -500 -4 -162 -9 -255 -17 -264 -26 -34 -159 -110 -220
-126 -110 -30 -224 -7 -282 57 -27 29 -58 91 -72 141 -14 51 19 167 88 314
l50 106 0 124 c0 68 -5 133 -10 143 -14 26 -87 67 -130 74 -22 4 -45 0 -61 -9z"/>
<path d="M4287 3460 c-16 -13 -39 -55 -62 -117 -70 -182 -184 -440 -265 -604
l-82 -162 -20 34 c-85 137 -255 513 -322 709 -42 121 -59 140 -125 140 -55 0
-145 -47 -157 -82 -15 -45 -4 -240 18 -313 54 -186 210 -531 348 -770 167
-289 171 -292 286 -283 66 6 105 32 119 79 5 19 41 86 79 149 92 153 212 399
287 589 107 269 109 278 109 420 0 148 -11 175 -82 210 -55 26 -98 27 -131 1z"/>
<path d="M4660 3438 c-68 -35 -72 -50 -65 -218 7 -172 42 -598 56 -690 14 -91
44 -207 86 -335 47 -141 76 -175 152 -175 44 0 55 4 86 35 19 20 35 42 35 51
0 34 78 223 178 427 l106 218 22 -99 c12 -54 43 -172 68 -262 25 -89 53 -204
63 -254 19 -107 48 -146 119 -166 78 -22 126 15 184 144 68 148 105 304 185
763 68 396 63 498 -29 543 -69 33 -183 22 -206 -20 -5 -10 -16 -94 -24 -186
-18 -204 -53 -380 -71 -362 -3 3 -46 124 -95 269 -98 290 -109 309 -178 309
-44 0 -101 -27 -116 -55 -6 -11 -36 -56 -67 -100 -105 -150 -208 -347 -209
-400 -1 -16 -2 -17 -9 -5 -17 30 -31 149 -38 314 -5 147 -9 172 -27 198 -51
75 -129 96 -206 56z"/>
<path d="M6220 3444 c-19 -8 -45 -25 -58 -37 -44 -41 -52 -69 -52 -189 l0
-114 61 -94 c34 -52 96 -140 138 -195 l78 -102 -54 -74 c-30 -41 -81 -114
-114 -162 l-59 -88 0 -138 c0 -128 2 -140 22 -167 33 -42 58 -62 96 -75 62
-21 82 -3 239 209 l145 194 153 -151 c84 -82 168 -159 186 -170 63 -38 160
-20 215 41 19 19 23 40 29 133 4 74 3 120 -5 140 -6 17 -77 97 -158 178 l-147
148 163 160 162 160 0 128 c0 116 -2 131 -22 161 -28 40 -99 80 -144 80 -43 0
-100 -46 -292 -234 -132 -130 -154 -147 -165 -134 -6 9 -37 47 -68 85 -32 37
-94 120 -139 183 -45 63 -92 120 -104 127 -28 16 -64 15 -106 -3z"/>
<path d="M7525 3441 c-78 -47 -104 -114 -112 -274 -8 -170 6 -249 63 -366 53
-107 126 -187 237 -260 37 -24 67 -46 67 -50 0 -3 -25 -40 -55 -81 l-55 -75 0
-123 c0 -68 5 -132 10 -143 28 -50 149 -76 211 -44 46 24 286 356 426 590 77
128 169 306 216 419 35 83 37 94 37 194 -1 119 -7 138 -60 177 -51 37 -102 49
-142 32 -29 -12 -43 -34 -120 -188 -83 -168 -197 -369 -223 -398 -11 -11 -23
-7 -77 25 -126 76 -234 211 -272 342 -8 29 -18 87 -22 129 -5 57 -12 80 -27
94 -26 24 -64 24 -102 0z"/>
<path d="M8845 3438 c-62 -34 -65 -42 -65 -175 0 -134 6 -158 57 -205 33 -31
93 -44 248 -54 l104 -7 -93 -42 c-51 -23 -122 -59 -157 -80 -88 -53 -189 -156
-225 -230 -27 -56 -29 -70 -32 -194 -4 -162 6 -198 77 -264 60 -56 106 -80
214 -111 268 -78 554 -54 885 74 107 41 112 50 112 210 0 121 0 122 -29 151
-39 39 -75 38 -176 -5 -123 -53 -223 -69 -384 -64 -104 4 -150 10 -195 26 -32
12 -61 24 -64 26 -16 17 96 93 200 138 116 49 281 103 463 149 181 46 239 74
283 139 20 30 22 45 22 151 0 112 -1 119 -26 148 -71 85 -338 168 -659 205
-170 20 -533 29 -560 14z"/>
</g>
</svg>
